<svg width="43" height="30" viewBox="0 0 43 30" fill="none" xmlns="http://www.w3.org/2000/svg">
<path fill-rule="evenodd" clip-rule="evenodd" d="M0.399994 4.4C0.399994 2.0804 2.2804 0.199997 4.59999 0.199997H38.2C40.5196 0.199997 42.4 2.0804 42.4 4.4V25.4C42.4 27.7196 40.5196 29.6 38.2 29.6H4.59999C2.2804 29.6 0.399994 27.7196 0.399994 25.4V4.4ZM4.59999 6.87643V23.3C4.59999 24.4598 5.5402 25.4 6.69999 25.4H36.1C37.2598 25.4 38.2 24.4598 38.2 23.3V6.87643L21.4 17.3764L4.59999 6.87643ZM34.2377 4.4H8.56224L21.4 12.4236L34.2377 4.4Z" fill="#D6D6D6"/>
</svg>
