<svg width="44" height="44" viewBox="0 0 44 44" fill="none" xmlns="http://www.w3.org/2000/svg">
<circle cx="22" cy="22.1429" r="21.4286" fill="#50514F"/>
<path d="M31.6428 15.52C31.6428 13.9156 30.2272 12.5 28.6229 12.5H16.4485C14.8442 12.5 13.4286 13.9156 13.4286 15.52V27.6943C13.4286 29.2987 14.8442 30.7143 16.4485 30.7143H22.5829V23.8249H20.3179V20.805H22.5829V19.5781C22.5829 17.5018 24.0929 15.7087 25.9804 15.7087H28.4341V18.7287H25.9804C25.6972 18.7287 25.4141 19.0118 25.4141 19.5781V20.805H28.4341V23.8249H25.4141V30.7143H28.6229C30.2272 30.7143 31.6428 29.2987 31.6428 27.6943V15.52Z" fill="#D6D6D6"/>
</svg>
