<svg width="43" height="43" viewBox="0 0 43 43" fill="none" xmlns="http://www.w3.org/2000/svg">
<circle cx="21.5714" cy="21.4286" r="21.4286" fill="#50514F"/>
<path d="M28.6223 12.8571H15.5921C14.1209 12.8571 13 13.978 13 15.4492V28.4794C13 29.9505 14.1209 31.0714 15.5921 31.0714H28.6223C30.0934 31.0714 31.2143 29.9505 31.2143 28.4794V15.4492C31.2143 13.978 30.0934 12.8571 28.6223 12.8571ZM22.1072 27.4285C25.1195 27.4285 27.5715 25.0467 27.5715 22.1744C27.5715 21.684 27.5014 21.1236 27.3613 20.7033H28.9025V28.1291C28.9025 28.4794 28.6223 28.8296 28.202 28.8296H16.0124C15.6621 28.8296 15.3118 28.5494 15.3118 28.1291V20.6332H16.9231C16.783 21.1236 16.7129 21.614 16.7129 22.1044C16.6429 25.0467 19.0948 27.4285 22.1072 27.4285ZM22.1072 25.3269C20.1456 25.3269 18.6044 23.7857 18.6044 21.8942C18.6044 20.0027 20.1456 18.4615 22.1072 18.4615C24.0687 18.4615 25.6099 20.0027 25.6099 21.8942C25.6099 23.8557 24.0687 25.3269 22.1072 25.3269ZM28.8325 17.831C28.8325 18.2513 28.4822 18.6016 28.0618 18.6016H26.1003C25.68 18.6016 25.3297 18.2513 25.3297 17.831V15.9395C25.3297 15.5192 25.68 15.1689 26.1003 15.1689H28.0618C28.4822 15.1689 28.8325 15.5192 28.8325 15.9395V17.831Z" fill="#D6D6D6"/>
</svg>
