<svg width="269" height="45" viewBox="0 0 269 45" fill="none" xmlns="http://www.w3.org/2000/svg">
<path d="M88.515 39.555V45H66.33V13.05H88.11V18.495H72.54V26.19H85.995V31.23H72.54V39.555H88.515Z" fill="#50514F"/>
<path d="M91.3763 40.32L109.421 18.495H91.8713V13.05H116.576V17.73L99.1163 39.555H116.711V45H91.3763V40.32Z" fill="#50514F"/>
<path d="M133.055 45V13.05H136.205V42.21H154.655V45H133.055Z" fill="#50514F"/>
<path d="M169.19 13.05H171.845L185.12 45H181.79L177.65 35.01H163.295L159.2 45H155.825L169.19 13.05ZM176.93 32.535L170.495 16.74L163.97 32.535H176.93Z" fill="#50514F"/>
<path d="M213.73 36.765C213.73 37.965 213.49 39.075 213.01 40.095C212.53 41.085 211.885 41.955 211.075 42.705C210.265 43.425 209.32 43.995 208.24 44.415C207.16 44.805 206.005 45 204.775 45H189.7V13.05H205.09C206.2 13.05 207.205 13.29 208.105 13.77C209.005 14.25 209.77 14.88 210.4 15.66C211.03 16.41 211.51 17.28 211.84 18.27C212.2 19.23 212.38 20.205 212.38 21.195C212.38 22.815 211.975 24.3 211.165 25.65C210.355 26.97 209.23 27.96 207.79 28.62C209.62 29.16 211.06 30.165 212.11 31.635C213.19 33.105 213.73 34.815 213.73 36.765ZM210.58 36.225C210.58 35.445 210.445 34.695 210.175 33.975C209.905 33.225 209.515 32.58 209.005 32.04C208.525 31.47 207.94 31.02 207.25 30.69C206.59 30.33 205.87 30.15 205.09 30.15H192.85V42.255H204.775C205.585 42.255 206.335 42.09 207.025 41.76C207.745 41.43 208.36 40.995 208.87 40.455C209.41 39.885 209.83 39.24 210.13 38.52C210.43 37.77 210.58 37.005 210.58 36.225ZM192.85 15.795V27.585H203.83C204.61 27.585 205.33 27.42 205.99 27.09C206.68 26.76 207.265 26.325 207.745 25.785C208.225 25.245 208.6 24.63 208.87 23.94C209.14 23.22 209.275 22.47 209.275 21.69C209.275 20.88 209.14 20.115 208.87 19.395C208.63 18.675 208.27 18.06 207.79 17.55C207.34 17.01 206.8 16.59 206.17 16.29C205.54 15.96 204.85 15.795 204.1 15.795H192.85Z" fill="#50514F"/>
<path d="M241.136 42.21V45H219.671V13.05H240.731V15.84H222.821V27.36H238.436V30.015H222.821V42.21H241.136Z" fill="#50514F"/>
<path d="M247.093 45V13.05H250.243V42.21H268.693V45H247.093Z" fill="#50514F"/>
<rect width="11.5448" height="45" fill="#50514F"/>
<rect x="34.6344" width="11.5448" height="45" fill="#50514F"/>
<path d="M11.625 11.9375H46.5V21H11.625V11.9375Z" fill="#F25F5C"/>
<rect x="11.625" y="35.9375" width="34.875" height="9.0625" fill="#F25F5C"/>
<rect width="34.875" height="9.0625" fill="#F25F5C"/>
<rect y="24.1562" width="34.875" height="9.0625" fill="#F25F5C"/>
</svg>
