<svg width="32" height="40" viewBox="0 0 32 40" fill="none" xmlns="http://www.w3.org/2000/svg">
<path fill-rule="evenodd" clip-rule="evenodd" d="M23.4 0.399994H3.9C1.74609 0.399994 0 2.14609 0 4.3V35.5C0 37.6539 1.74609 39.4 3.9 39.4H27.3C29.4539 39.4 31.2 37.6539 31.2 35.5V8.2L23.4 0.399994ZM5.85 4.29999H19.5L19.5 12.1H27.3V33.55C27.3 34.6269 26.427 35.5 25.35 35.5H5.85C4.77304 35.5 3.9 34.6269 3.9 33.55V6.24999C3.9 5.17304 4.77305 4.29999 5.85 4.29999ZM23.4 8.19999V4.29999L27.3 8.19999H23.4Z" fill="#D6D6D6"/>
</svg>
