<svg width="43" height="44" viewBox="0 0 43 44" fill="none" xmlns="http://www.w3.org/2000/svg">
<circle cx="21.4286" cy="22.1429" r="21.4286" fill="#50514F"/>
<path d="M32.7858 16.6786C32.0358 17 31.1786 17.2143 30.3215 17.3214C31.1786 16.7857 31.9286 15.9286 32.25 14.9643C31.3929 15.5 30.5358 15.8214 29.4643 16.0357C28.7143 15.1786 27.5358 14.6429 26.3572 14.6429C24 14.6429 22.0715 16.5714 22.0715 18.9286C22.0715 19.25 22.0715 19.5714 22.1786 19.8928C18.6429 19.6786 15.4286 17.9643 13.2858 15.3928C12.9643 16.0357 12.75 16.7857 12.75 17.5357C12.75 19.0357 13.5 20.3214 14.6786 21.0714C13.9286 21.0714 13.2858 20.8571 12.75 20.5357C12.75 22.5714 14.25 24.3928 16.1786 24.7143C15.8572 24.8214 15.4286 24.8214 15.0001 24.8214C14.6786 24.8214 14.4643 24.8214 14.1429 24.7143C14.6786 26.4286 16.2858 27.7143 18.2143 27.7143C16.7143 28.8928 14.8929 29.5357 12.8572 29.5357C12.5358 29.5357 12.2143 29.5357 11.7858 29.4286C13.7143 30.6071 15.9643 31.3571 18.4286 31.3571C26.3572 31.3571 30.6429 24.8214 30.6429 19.1428V18.6071C31.5 18.2857 32.25 17.5357 32.7858 16.6786Z" fill="#D6D6D6"/>
</svg>
